<svg width="24" height="24" viewBox="0 0 24 24" fill="none" xmlns="http://www.w3.org/2000/svg">
<path d="M11.9999 4.1999C14.0686 4.1999 16.0526 5.02169 17.5153 6.48447C18.9781 7.94725 19.7999 9.93121 19.7999 11.9999C19.7999 14.0686 18.9781 16.0526 17.5153 17.5153C16.0526 18.9781 14.0686 19.7999 11.9999 19.7999V4.1999ZM11.9999 2.3999C9.45382 2.3999 7.01203 3.41133 5.21168 5.21168C3.41133 7.01203 2.3999 9.45382 2.3999 11.9999C2.3999 14.546 3.41133 16.9878 5.21168 18.7881C7.01203 20.5885 9.45382 21.5999 11.9999 21.5999C14.546 21.5999 16.9878 20.5885 18.7881 18.7881C20.5885 16.9878 21.5999 14.546 21.5999 11.9999C21.5999 9.45382 20.5885 7.01203 18.7881 5.21168C16.9878 3.41133 14.546 2.3999 11.9999 2.3999Z" fill="black"/>
</svg>
