<svg width="24" height="24" viewBox="0 0 24 24" fill="none" xmlns="http://www.w3.org/2000/svg">
<path d="M12 21C10.7613 21 9.59467 20.7633 8.50001 20.29C7.40534 19.816 6.45201 19.1727 5.64001 18.36C4.82801 17.5473 4.18467 16.594 3.71001 15.5C3.23534 14.406 2.99867 13.2393 3.00001 12C3.00001 10.7573 3.23667 9.58967 3.71001 8.497C4.18401 7.40367 4.82734 6.45133 5.64001 5.64C6.45267 4.82867 7.40601 4.18533 8.50001 3.71C9.59467 3.23667 10.7613 3 12 3C13.2427 3 14.4103 3.23667 15.503 3.71C16.5963 4.184 17.549 4.82733 18.361 5.64C19.173 6.45267 19.816 7.405 20.29 8.497C20.7633 9.59033 21 10.758 21 12C21 13.2387 20.7633 14.4053 20.29 15.5C19.816 16.5947 19.1727 17.548 18.36 18.36C17.5473 19.172 16.595 19.8153 15.503 20.29C14.411 20.7647 13.2433 21.0013 12 21ZM12 20.008C12.5867 19.254 13.0707 18.5137 13.452 17.787C13.8327 17.0603 14.1423 16.247 14.381 15.347H9.61901C9.88367 16.2977 10.1997 17.1363 10.567 17.863C10.935 18.5897 11.4127 19.3047 12 20.008ZM10.727 19.858C10.2603 19.308 9.83434 18.628 9.44901 17.818C9.06367 17.0087 8.77701 16.1847 8.58901 15.346H4.75401C5.32734 16.5893 6.13967 17.6093 7.19101 18.406C8.24301 19.202 9.42167 19.686 10.727 19.858ZM13.273 19.858C14.5783 19.686 15.757 19.202 16.809 18.406C17.8603 17.6093 18.6727 16.5893 19.246 15.346H15.412C15.1587 16.1973 14.8397 17.0277 14.455 17.837C14.0697 18.647 13.6757 19.3213 13.273 19.858ZM4.34601 14.347H8.38101C8.30501 13.9363 8.25167 13.5363 8.22101 13.147C8.18901 12.7583 8.17301 12.376 8.17301 12C8.17301 11.624 8.18867 11.2417 8.22001 10.853C8.25134 10.4643 8.30467 10.0643 8.38001 9.653H4.34701C4.23834 9.99967 4.15334 10.3773 4.09201 10.786C4.03067 11.194 4.00001 11.5987 4.00001 12C4.00001 12.4013 4.03034 12.8063 4.09101 13.215C4.15167 13.6237 4.23667 14.0007 4.34601 14.346M9.38101 14.346H14.619C14.695 13.936 14.7483 13.5427 14.779 13.166C14.811 12.79 14.827 12.4013 14.827 12C14.827 11.5987 14.8113 11.21 14.78 10.834C14.7487 10.458 14.6953 10.0647 14.62 9.654H9.38001C9.30467 10.064 9.25134 10.4573 9.22001 10.834C9.18867 11.21 9.17301 11.5987 9.17301 12C9.17301 12.4013 9.18867 12.79 9.22001 13.166C9.25134 13.542 9.30567 13.9353 9.38101 14.346ZM15.62 14.346H19.654C19.7627 14 19.8477 13.623 19.909 13.215C19.9697 12.8063 20 12.4013 20 12C20 11.5987 19.9697 11.1937 19.909 10.785C19.8483 10.3763 19.7633 9.99933 19.654 9.654H15.619C15.695 10.064 15.7483 10.4637 15.779 10.853C15.811 11.2423 15.827 11.6247 15.827 12C15.827 12.3753 15.8113 12.7577 15.78 13.147C15.7487 13.5363 15.6953 13.9363 15.62 14.347M15.412 8.654H19.246C18.66 7.38467 17.8573 6.36467 16.838 5.594C15.8187 4.82333 14.6303 4.333 13.273 4.123C13.7397 4.737 14.1593 5.43933 14.532 6.23C14.9047 7.02 15.198 7.828 15.412 8.654ZM9.61901 8.654H14.381C14.117 7.71533 13.7913 6.86667 13.404 6.108C13.0167 5.34933 12.5487 4.644 12 3.992C11.4513 4.64333 10.9833 5.34867 10.596 6.108C10.2087 6.86733 9.88234 7.716 9.61901 8.654ZM4.75501 8.654H8.58901C8.80301 7.82867 9.09634 7.02067 9.46901 6.23C9.84167 5.43933 10.2613 4.737 10.728 4.123C9.35867 4.33367 8.16734 4.827 7.15401 5.603C6.14067 6.38033 5.34067 7.397 4.75401 8.653" fill="black"/>
</svg>
