<svg width="24" height="24" viewBox="0 0 24 24" fill="none" xmlns="http://www.w3.org/2000/svg">
<g clip-path="url(#clip0_1567_5289)">
<path d="M14.316 9.09796C14.1783 8.70784 13.923 8.37005 13.5852 8.13117C13.2475 7.89229 12.8439 7.76408 12.4303 7.76424H10.8823C10.4406 7.76193 10.0138 7.92346 9.68438 8.21759C9.35494 8.51172 9.14627 8.91757 9.09871 9.35664C9.05116 9.79571 9.1681 10.2368 9.42693 10.5947C9.68576 10.9525 10.0681 11.2017 10.5 11.294L12.8571 11.8082C13.3391 11.9138 13.7651 12.1937 14.0532 12.5942C14.3414 12.9947 14.4713 13.4875 14.4182 13.9781C14.365 14.4686 14.1325 14.9222 13.7652 15.2516C13.398 15.5811 12.9219 15.7633 12.4285 15.7631H11.0965C10.2257 15.7631 9.48511 15.2077 9.21082 14.4311M11.7634 7.76424V5.76367M11.7634 17.7637V15.7648M3.42511 23.1397V18.854H7.71082" stroke="black" stroke-width="1.71429" stroke-linecap="round" stroke-linejoin="round"/>
<path d="M22.9508 9.94974C23.4059 12.3758 23.0426 14.8843 21.9178 17.0816C20.7931 19.2788 18.9706 21.0404 16.7364 22.0898C14.5022 23.1393 11.9827 23.4171 9.57353 22.8798C7.16432 22.3425 5.00171 21.0205 3.42513 19.1212M1.04913 14.0503C0.594032 11.6242 0.957378 9.11571 2.08214 6.91847C3.20691 4.72123 5.02941 2.95965 7.26362 1.91022C9.49782 0.860791 12.0172 0.58292 14.4265 1.12022C16.8357 1.65752 18.9983 2.97958 20.5748 4.87889" stroke="black" stroke-width="1.71429" stroke-linecap="round" stroke-linejoin="round"/>
<path d="M20.5748 0.86084V5.14655H16.2891" stroke="black" stroke-width="1.71429" stroke-linecap="round" stroke-linejoin="round"/>
</g>
<defs>
<clipPath id="clip0_1567_5289">
<rect width="24" height="24" fill="white"/>
</clipPath>
</defs>
</svg>
